<svg xmlns="http://www.w3.org/2000/svg" version="1.1" xmlns:xlink="http://www.w3.org/1999/xlink" xmlns:svgjs="http://svgjs.dev/svgjs" viewBox="0 0 2000 1329"><g transform="matrix(1,0,0,1,-0.05789348348776002,-2.1435483870967573)"><svg viewBox="0 0 373 248" data-background-color="#ffffff" preserveAspectRatio="xMidYMid meet" height="1329" width="2000" xmlns="http://www.w3.org/2000/svg" xmlns:xlink="http://www.w3.org/1999/xlink"><g id="tight-bounds" transform="matrix(1,0,0,1,0.010797134670468722,0.4000000000000057)"><svg viewBox="0 0 372.97840573065906 247.2" height="247.2" width="372.97840573065906"><g><svg viewBox="0 0 372.97840573065906 247.2" height="247.2" width="372.97840573065906"><g><svg viewBox="0 0 372.97840573065906 247.2" height="247.2" width="372.97840573065906"><g id="textblocktransform"><svg viewBox="0 0 372.97840573065906 247.2" height="247.2" width="372.97840573065906" id="textblock"><g><svg viewBox="0 0 372.97840573065906 247.2" height="247.2" width="372.97840573065906"><rect width="372.97840573065906" height="247.2" x="0" y="0" opacity="1" fill="#2e30ff" data-fill-palette-color="tertiary"></rect><g transform="matrix(1,0,0,1,23.607599999999998,23.607599999999998)"><svg width="325.7632057306591" viewBox="3.35 -34.9 56.85 34.9" height="199.9848" data-palette-color="#ffffff"><path d="M8.45 0L3.35 0 3.35-34.9 9.95-34.9 24.5-6.9 24.1-17.7 24.1-34.9 29.2-34.9 29.2 0 22.65 0 8-27.7 8.45-17.25 8.45 0ZM49.95 0L37.55 0 37.55-4.5 50-4.5Q52.4-4.5 53.65-5.93 54.9-7.35 54.9-9.8L54.9-9.8 54.9-34.9 60.2-34.9 60.2-10.05Q60.2-7.65 59.55-5.78 58.9-3.9 57.62-2.63 56.35-1.35 54.42-0.68 52.5 0 49.95 0L49.95 0ZM41.6-30.4L41.6-34.9 59.8-34.9 59.8-30.4 41.6-30.4Z" opacity="1" transform="matrix(1,0,0,1,0,0)" fill="#ffffff" class="wordmark-text-0" data-fill-palette-color="quaternary" id="text-0"></path></svg></g></svg></g></svg></g></svg></g></svg></g><defs></defs></svg><rect width="372.97840573065906" height="247.2" fill="none" stroke="none" visibility="hidden"></rect></g></svg></g></svg>